<?xml version="1.0" standalone="no"?>
<!DOCTYPE svg PUBLIC "-//W3C//DTD SVG 20010904//EN"
 "http://www.w3.org/TR/2001/REC-SVG-20010904/DTD/svg10.dtd">
<svg version="1.0" xmlns="http://www.w3.org/2000/svg"
 width="238.000000pt" height="238.000000pt" viewBox="0 0 238.000000 238.000000"
 preserveAspectRatio="xMidYMid meet">
<metadata>
Created by potrace 1.16, written by Peter Selinger 2001-2019
</metadata>
<g transform="translate(0.000000,238.000000) scale(0.100000,-0.100000)"
fill="#000000" stroke="none">
<path d="M1020 2374 c-159 -29 -263 -64 -391 -130 -326 -168 -562 -502 -620
-878 -16 -103 -5 -361 20 -458 86 -337 306 -620 600 -772 101 -52 195 -87 301
-113 107 -26 413 -26 520 0 354 85 636 303 798 614 89 172 122 298 129 503 8
231 -23 385 -117 576 -160 326 -444 552 -805 640 -68 16 -374 29 -435 18z
m233 -628 c90 -32 155 -75 222 -148 53 -57 108 -150 126 -210 l8 -28 -83 0
c-80 0 -83 1 -95 27 -25 55 -83 122 -134 156 -141 94 -303 84 -423 -25 -101
-93 -144 -199 -144 -353 0 -151 53 -287 159 -408 28 -31 121 -99 196 -143 28
-16 -121 1 -174 20 -291 105 -447 446 -345 752 57 171 196 312 363 365 87 28
237 25 324 -5z m161 8 c143 -37 268 -142 332 -278 56 -121 57 -116 -23 -116
l-68 0 -19 53 c-43 124 -138 244 -249 317 -68 44 -64 48 27 24z m-324 -253
c-110 -113 -174 -287 -150 -411 33 -174 171 -291 345 -293 91 -1 161 23 220
75 76 67 115 146 130 266 l7 52 85 0 85 0 -7 -52 c-46 -358 -273 -553 -590
-508 -198 28 -350 160 -415 361 -31 96 -35 256 -7 335 51 148 162 233 303 234
l52 0 -58 -59z m512 -351 c-11 -123 -69 -219 -161 -267 -35 -18 -75 -33 -89
-33 l-26 0 36 38 c40 41 88 125 88 153 0 18 -11 19 -145 19 l-145 0 0 65 0 65
223 -2 222 -3 -3 -35z"/>
</g>
</svg>
